# xmcd
#
# Track frame offsets: 
#        180
#        16729
#        34145
#        61557
#        79801
#        93947
#        113650
#        136174
#        153684
#        167212
#        178231
#
# Disc length: 2619 seconds
#
# Revision: 0
# Processed by: cddbd v1.4PL0 Copyright (c) Steve Scherf et al.
# Submitted via: ExactAudioCopy v0.95a4
#
DISCID=810a390b
DTITLE=Bukka White - Mississippi Blues
DYEAR=1996
DGENRE=Blues
TTITLE0=Shake 'Em On Down
TTITLE1=I Am In The Heavenly Way
TTITLE2=Atlanta Special
TTITLE3=Drunk Man Blues
TTITLE4=Army Blues
TTITLE5=Aberdeen, Mississippi Blues
TTITLE6=Baby Please Don't Go
TTITLE7=New Orleans, Streamline
TTITLE8=Parchman Farm Blues
TTITLE9=Poor Boy Long Way From Home
TTITLE10=Remembrance Of Charley Patton
EXTD=
EXTT0=
EXTT1=
EXTT2=
EXTT3=
EXTT4=
EXTT5=
EXTT6=
EXTT7=
EXTT8=
EXTT9=
EXTT10=
PLAYORDER=
